<?xml version="1.0" encoding="utf-8"?>
<!-- Generator: Adobe Illustrator 27.2.0, SVG Export Plug-In . SVG Version: 6.00 Build 0)  -->
<svg version="1.1" id="Layer_1" xmlns="http://www.w3.org/2000/svg" xmlns:xlink="http://www.w3.org/1999/xlink" x="0px" y="0px"
	 viewBox="0 0 28 28" style="enable-background:new 0 0 28 28;" xml:space="preserve">
<path d="M5.2,22.3l0.7-2.7c0.7,1.2,1.9,1.8,3.2,1.9c1.3,0,2.4-0.7,3.1-1.8l0.7,2.7H5.2z"/>
<path d="M9.1,21c-1.8,0-3.2-1.4-3.2-3.2s1.4-3.2,3.2-3.2s3.2,1.4,3.2,3.2C12.3,19.6,10.9,21,9.1,21L9.1,21z"/>
<path d="M19.1,6.1c-1.1,0-2-0.9-2-2c0-1.1,0.9-2,2-2c1.1,0,2,0.9,2,2C21.2,5.2,20.2,6.1,19.1,6.1z"/>
<path d="M18.4,12.8c-0.8,0-1.5-0.7-1.5-1.5s0.7-1.5,1.5-1.5c0.8,0,1.5,0.7,1.5,1.5S19.3,12.8,18.4,12.8z"/>
<path d="M20.4,10.8c1.1-0.1,2,0.1,2.8,0.9c0.7,0.6,1,2,1,2s-0.5,0.5-0.5,0.5c-1.1-1.8-2.2-1.5-3.1-0.7c-0.9,0.8-1,1.9,0.8,3.1
	c-0.1,0.1-0.6,0.6-0.6,0.6s-1.3-0.3-1.9-1c-0.7-0.7-0.9-1.5-0.9-2.5c0-0.2,0.1-0.3,0.1-0.5c0.8,0,0.5,0.1,1-0.1
	c0.8-0.3,1.3-1.2,1.1-2.1L20.4,10.8z"/>
<path d="M8.8,9.1l2,5.5c-0.5-0.3-1.1-0.4-1.8-0.4c-1.4,0-2.4,0.7-3.2,1.8l-1.1-5.8l0,0c0.4,0.2,0.9,0.3,1.3,0.3
	C7.2,10.4,8.2,9.9,8.8,9.1L8.8,9.1z"/>
<path d="M17,3.1L17,3.1c-0.3,0.7-0.2,0.3-0.2,1c0,0.9,0.3,1.2,0.9,1.8l0,0L9.3,8.2c0.2-0.3,0.2-0.8,0.2-1.1c0-0.9-0.4-1.7-1-2.4
	L17,3.1z"/>
<path d="M17.7,6c0.4,0.4,0.9,0.5,1.4,0.5c0.7-0.1,0.3,0,1-0.3l-0.5,3.6l0,0c-0.3-0.3-0.7-0.3-1.1-0.4c-0.5,0.1-0.2,0-0.8,0.2l0,0
	L17.7,6z"/>
<path d="M6.2,10c-1.6,0-2.9-1.3-2.9-2.9c0-1.6,1.3-2.9,2.9-2.9s2.9,1.3,2.9,2.9C9.1,8.7,7.8,10,6.2,10L6.2,10z"/>
<path d="M-19.7,0.8c6.8,0,12,5,12,11.6s-5.2,11.6-12,11.6c-1.2,0-2.3-0.2-3.5-0.5c-0.2-0.1-0.4,0-0.6,0l-2.4,1.1
	c-0.5,0.2-1.1,0-1.3-0.5c0-0.1-0.1-0.2-0.1-0.4l-0.1-2.1c0-0.3-0.1-0.5-0.3-0.7c-2.4-2.2-3.8-5.3-3.8-8.6
	C-31.7,5.7-26.4,0.8-19.7,0.8z M-26.9,15.8c-0.2,0.3-0.1,0.6,0.2,0.8c0.2,0.1,0.5,0.1,0.6,0l3.8-2.9c0.3-0.2,0.6-0.2,0.9,0l2.8,2.1
	c0.8,0.6,1.9,0.4,2.5-0.4c0,0,0.1-0.1,0.1-0.1l3.5-5.6c0.2-0.3,0.1-0.6-0.2-0.8c-0.2-0.1-0.5-0.1-0.6,0l-3.8,2.9
	c-0.3,0.2-0.6,0.2-0.9,0l-2.8-2.1c-0.8-0.6-1.9-0.4-2.5,0.4c0,0-0.1,0.1-0.1,0.1L-26.9,15.8z"/>
<path d="M15.7,24.8c-0.2-1.7-3.1-3.1-6.6-3.1s-6.4,1.4-6.6,3.1H15.7z"/>
</svg>
